<svg width="230" height="159" xmlns="http://www.w3.org/2000/svg"><path d="M221,42 C219.095971,24.6360129 207.447994,9.88190955 191,4 C189.03756,3.22553806 187.034629,2.55789427 185,2 C181.383224,1.08330325 177.707979,0.415076944 174,2.72515344e-14 L152,2 L132,4 L100,4 L80,2 L58,0 C54.292282,0.416857409 50.6171579,1.08506179 47,2 C44.9653711,2.55789427 42.9624397,3.22553806 41,4 C24.5520057,9.88190955 12.9040294,24.6360129 11,42 L1,132 C0.69,140.55 6.27,149.4 12,153.35 C15.8957921,155.923968 20.3555074,157.519174 25,158 C40,160 49,147 49,147 L83,95 L149,95 L183,147 C183,147 192,160 207,158 C211.644493,157.519174 216.104208,155.923968 220,153.35 C225.71,149.4 231.29,140.55 231,132 L221,42 Z" fill="#3DB982"/><path fill="#33495F" d="M30.01 42H80.01V54H30.01z"/><path fill="#33495F" transform="rotate(-90 55.01 48.5)" d="M30.51 42.5H79.51V54.5H30.51z"/><circle fill="#33495F" cx="157.76" cy="48.5" r="8.75"/><circle fill="#33495F" cx="193.01" cy="48.5" r="8.75"/><circle fill="#33495F" cx="175.51" cy="66.25" r="8.75"/><circle fill="#33495F" cx="175.51" cy="31" r="8.75"/><circle fill="#33495F" cx="86" cy="92" r="18"/><circle fill="#33495F" cx="146.01" cy="92" r="18"/></svg>