<svg xmlns="http://www.w3.org/2000/svg" viewBox="0 0 230.03 159.21"><path d="M220,43S215,5,172,0H58C15,5,10,43,10,43L0,133c-.31,8.55,5.27,17.4,11,21.35A29,29,0,0,0,24,159c15,2,24-11,24-11l28-43h78l28,43s9,13,24,11a29,29,0,0,0,13-4.65c5.71-3.95,11.29-12.8,11-21.35Z" fill="#3db982" /><path d="M36.01 46H88.00999999999999V60H36.01z" fill="#33495f" /><path transform="rotate(-90 62.01 53.5)" d="M36.01 46.5H88.00999999999999V60.5H36.01z" fill="#33495f" /><circle cx="154.76" cy="52.5" r="8.75" fill="#33495f" /><circle cx="190.01" cy="52.5" r="8.75" fill="#33495f" /><circle cx="172.51" cy="70.25" r="8.75" fill="#33495f" /><circle cx="172.51" cy="35" r="8.75" fill="#33495f" /></svg>